<svg xmlns="http://www.w3.org/2000/svg" viewBox="0 0 64 64" aria-hidden="true">
  <defs>
    <linearGradient id="gsapGradient" x1="0%" y1="0%" x2="100%" y2="100%">
      <stop offset="0%" stop-color="#9BE15D"/>
      <stop offset="100%" stop-color="#00E3AE"/>
    </linearGradient>
  </defs>
  <rect x="6" y="6" width="52" height="52" rx="14" fill="url(#gsapGradient)"/>
  <path d="M20 34.2c0-6.8 4.6-11.6 11.4-11.6 3.4 0 6 .9 8.3 3l-2.8 3.2c-1.5-1.3-3-2-5.4-2-4 0-6.9 3-6.9 7.4 0 4.5 2.8 7.5 7.2 7.5 1.8 0 3.4-.4 4.6-1.3v-3.1h-5v-3.8h9.3v8.9c-2.1 1.8-5.1 3.3-9.1 3.3-7 0-11.6-4.6-11.6-11.5Z" fill="#08100B"/>
</svg>
